<?xml version="1.0" encoding="UTF-8"?>
<svg version="1.1" xmlns="http://www.w3.org/2000/svg" width="267" height="269">
<path d="M0 0 C88.11 0 176.22 0 267 0 C267 88.77 267 177.54 267 269 C178.89 269 90.78 269 0 269 C0 180.23 0 91.46 0 0 Z " fill="#FDFDFD" transform="translate(0,0)"/>
<path d="M0 0 C-1.29614685 2.7187653 -2.72296209 5.16455239 -4.46875 7.6171875 C-4.95214844 8.29910156 -5.43554688 8.98101562 -5.93359375 9.68359375 C-6.70896484 10.76833984 -6.70896484 10.76833984 -7.5 11.875 C-8.30630859 13.01001953 -8.30630859 13.01001953 -9.12890625 14.16796875 C-10.74950772 16.44753819 -12.37403348 18.72425509 -14 21 C-14.44472656 21.62293945 -14.88945312 22.24587891 -15.34765625 22.88769531 C-16.96854995 25.15770866 -18.59011706 27.42723601 -20.21337891 29.69555664 C-23.45115878 34.22241693 -26.66658448 38.76478939 -29.875 43.3125 C-30.37700928 44.02390137 -30.87901855 44.73530273 -31.39624023 45.46826172 C-33.94874957 49.08699882 -36.49791276 52.70804835 -39.04296875 56.33203125 C-43.8184431 63.12484481 -48.62589712 69.88563683 -53.5625 76.5625 C-57.75065184 82.22917483 -61.7729728 87.99166035 -65.73901367 93.81542969 C-69.19872414 98.87853952 -72.76551353 103.85531391 -76.375 108.8125 C-80.88623481 115.00883928 -85.26617357 121.27790576 -89.5625 127.625 C-94.08361939 134.30110256 -98.76899257 140.80605181 -103.68505859 147.19677734 C-106.16410286 150.44594622 -108.49809813 153.71513027 -110.65625 157.1875 C-111.08397705 157.8690918 -111.5117041 158.55068359 -111.95239258 159.25292969 C-112.74383616 160.53263092 -113.51647556 161.82427154 -114.2644043 163.12988281 C-118.99396898 170.76237789 -128.3901097 172.61576605 -136.5234375 175.234375 C-137.82542587 175.65870819 -137.82542587 175.65870819 -139.15371704 176.09161377 C-140.96970913 176.68210215 -142.78648259 177.27019254 -144.60400391 177.85595703 C-147.39066759 178.75505504 -150.17394102 179.66412722 -152.95703125 180.57421875 C-154.72897406 181.14903157 -156.50110296 181.72327113 -158.2734375 182.296875 C-159.10467133 182.56868591 -159.93590515 182.84049683 -160.79232788 183.12054443 C-161.94965927 183.49158295 -161.94965927 183.49158295 -163.13037109 183.87011719 C-163.80715912 184.08899597 -164.48394714 184.30787476 -165.1812439 184.53338623 C-167 185 -167 185 -170 185 C-168.36881355 179.86328242 -165.23550657 175.9582939 -162.0625 171.6875 C-160.87477886 170.06752194 -159.68860696 168.44640698 -158.50390625 166.82421875 C-157.91109863 166.01259277 -157.31829102 165.2009668 -156.70751953 164.36474609 C-154.24292827 160.95153034 -151.86615468 157.48185959 -149.5 154 C-145.5929453 148.26350252 -141.58101037 142.61400913 -137.5 137 C-132.93481709 130.71792739 -128.47082867 124.37937599 -124.09155273 117.96655273 C-119.31292689 110.97455939 -114.42087197 104.06440131 -109.52490234 97.15429688 C-107.98929322 94.98487406 -106.45696875 92.81317049 -104.92578125 90.640625 C-100.34535419 84.14187443 -95.75703372 77.64959003 -91.125 71.1875 C-87.10060807 65.57296255 -83.14006676 59.91527367 -79.1875 54.25 C-74.50757716 47.54731193 -69.78666067 40.87693529 -65 34.25 C-64.4846167 33.53618164 -63.9692334 32.82236328 -63.43823242 32.08691406 C-62.45238553 30.72626252 -61.46124065 29.36943088 -60.46435547 28.0168457 C-59.4535433 26.62466175 -58.4695894 25.21271788 -57.50830078 23.78588867 C-54.4079029 19.31286101 -52.39129089 17.06368879 -46.875 15.8125 C-41.37982243 14.50512315 -36.43268341 12.55835711 -31.25097656 10.3527832 C-25.87878048 8.11732672 -20.41254993 6.15432905 -14.9375 4.1875 C-13.2678418 3.57745117 -13.2678418 3.57745117 -11.56445312 2.95507812 C-9.96827148 2.37983398 -9.96827148 2.37983398 -8.33984375 1.79296875 C-7.38456787 1.4477417 -6.42929199 1.10251465 -5.44506836 0.74682617 C-3 0 -3 0 0 0 Z " fill="#A7C7D5" transform="translate(212,58)"/>
<path d="M0 0 C0.66 0 1.32 0 2 0 C3.86208258 2.23142127 5.59703365 4.47123853 7.3125 6.8125 C7.84230469 7.52664062 8.37210938 8.24078125 8.91796875 8.9765625 C13.48642714 15.18580524 17.82540913 21.54319634 22.1418457 27.92895508 C25.62710696 33.06264371 29.2377138 38.06634237 33 43 C37.94107982 49.47946351 42.5548901 56.1408458 47.1159668 62.8918457 C52.48214388 70.79464302 58.19463111 78.41641 64 86 C62 87 62 87 59.65942383 86.3984375 C58.68513428 86.06070313 57.71084473 85.72296875 56.70703125 85.375 C55.61269775 85.00238037 54.51836426 84.62976074 53.39086914 84.24584961 C50.97728905 83.40553445 48.56371496 82.56520204 46.15014648 81.72485352 C40.30826585 79.71380208 34.53438197 77.81188215 28.515625 76.40234375 C16.32274949 73.4816356 9.38083777 70.39324139 2.70703125 59.55078125 C2.27600098 58.81682129 1.8449707 58.08286133 1.40087891 57.32666016 C-0.64799589 53.92377121 -2.92838246 50.69416957 -5.19873047 47.43652344 C-7.35226657 44.34138225 -9.46217407 41.21853434 -11.55419922 38.08154297 C-12.508366 36.70781349 -13.51034084 35.36594985 -14.55908203 34.06298828 C-16.00390625 32.25390625 -16.00390625 32.25390625 -18 29 C-16.3982712 23.21038637 -12.42628602 18.30416217 -9.12304688 13.36889648 C-7.99532065 11.6804942 -6.88021001 9.98420706 -5.765625 8.28710938 C-5.05921875 7.22685547 -4.3528125 6.16660156 -3.625 5.07421875 C-2.97789062 4.10057373 -2.33078125 3.12692871 -1.6640625 2.1237793 C-1.11492187 1.42293213 -0.56578125 0.72208496 0 0 Z " fill="#738FA0" transform="translate(153,157)"/>
<path d="M0 0 C4.05310207 0.49428074 7.36262724 1.5345228 11.08862305 3.1730957 C14.22808442 4.53129671 17.42310337 5.73550627 20.625 6.9375 C21.31867676 7.19837402 22.01235352 7.45924805 22.72705078 7.72802734 C28.09692421 9.72128698 33.52497936 11.42642421 39.015625 13.05859375 C42.7548824 14.2381239 46.35935557 15.65979775 49.9765625 17.16796875 C51.62500104 17.84580159 53.30910489 18.4363683 55 19 C56.62109375 21.125 56.62109375 21.125 58.4375 24 C62.42389543 30.18373816 66.63865772 36.17066375 70.96264648 42.12304688 C76.50587863 49.86207457 76.50587863 49.86207457 77 53 C75.6694895 55.48423989 74.4148052 57.38310174 72.6875 59.5625 C72.22980225 60.16658691 71.77210449 60.77067383 71.30053711 61.39306641 C70.34945155 62.64665843 69.39141195 63.89500256 68.42675781 65.13818359 C67.05532936 66.92779917 65.73562064 68.74425862 64.4296875 70.58203125 C59.92426255 76.85143691 59.92426255 76.85143691 58 79 C57.01 79 56.02 79 55 79 C53.22908885 76.9359938 51.67895284 74.90810919 50.125 72.6875 C49.64595215 72.01887939 49.1669043 71.35025879 48.67333984 70.66137695 C44.35067756 64.59198068 40.16353013 58.42752074 35.97900391 52.26245117 C31.73249442 46.02019473 27.34142523 39.89605936 22.89306641 33.79663086 C18.25586865 27.41398682 13.79751777 20.91724259 9.40039062 14.3671875 C7.10400903 10.9681899 4.80311223 7.68879749 2.125 4.578125 C0 2 0 2 0 0 Z " fill="#768D9C" transform="translate(45,58)"/>
<path d="M0 0 C17.33743929 2.30119858 34.76582171 14.61370693 45.40625 28.03515625 C50.35500699 34.80375898 55.01089617 42.1373573 58 50 C57.505 50.99 57.505 50.99 57 52 C56.2575 51.030625 55.515 50.06125 54.75 49.0625 C45.53343858 38.40986971 31.03408081 29.51109191 17.63671875 25.18359375 C4.19649487 20.78451798 4.19649487 20.78451798 1.82861328 17.25292969 C0.13572286 12.92581066 -0.06401736 8.63058927 0 4 C0 2.68 0 1.36 0 0 Z " fill="#99B9C8" transform="translate(69,36)"/>
<path d="M0 0 C-0.144375 1.258125 -0.28875 2.51625 -0.4375 3.8125 C-1.03816186 9.20129495 -1.52550539 14.59883791 -2 20 C-2.969375 20.3403125 -3.93875 20.680625 -4.9375 21.03125 C-24.08406777 27.89101805 -42.17768289 36.63233067 -56 52 C-57 49 -57 49 -55.8125 46.1796875 C-46.19688367 28.64776635 -22.9621819 0 0 0 Z " fill="#6997B4" transform="translate(188,35)"/>
<path d="M0 0 C4.28635138 2.26924485 7.60201503 4.7574112 10 9 C10.68013542 13.6310344 10.59070434 17.6118448 8.75 21.9375 C6.14780182 25.00437642 4.24812601 26.79139955 0.1953125 27.46875 C-9.11470569 27.56350845 -9.11470569 27.56350845 -12.625 24.6875 C-16.49337619 20.31012694 -17.4598385 17.95378231 -17.3125 12.28125 C-16.63880442 7.36327225 -13.84011344 4.70942913 -10.1875 1.625 C-6.35990051 -0.32632523 -4.24556929 -0.6065099 0 0 Z " fill="#1BD4F6" transform="translate(200,133)"/>
<path d="M0 0 C0.66 0 1.32 0 2 0 C3.98046875 2.23046875 3.98046875 2.23046875 6.1875 5.1875 C6.92355469 6.15042969 7.65960938 7.11335937 8.41796875 8.10546875 C10 11 10 11 9.77392578 13.41748047 C8.94674976 16.17769117 7.91530436 17.9117541 6.19921875 20.21484375 C5.63396484 20.98376953 5.06871094 21.75269531 4.48632812 22.54492188 C3.5959082 23.72924805 3.5959082 23.72924805 2.6875 24.9375 C1.52380553 26.5084231 0.36102509 28.08002374 -0.80078125 29.65234375 C-1.62570068 30.76391846 -1.62570068 30.76391846 -2.46728516 31.89794922 C-4.39865712 34.54674065 -6.21350574 37.25188661 -8 40 C-11.5342767 38.55696563 -13.22023292 36.81454002 -15.375 33.6875 C-15.91898438 32.92824219 -16.46296875 32.16898438 -17.0234375 31.38671875 C-18 29 -18 29 -17.28759766 26.70947266 C-15.03604969 21.97157365 -12.03578619 17.72072866 -9.12304688 13.36889648 C-7.99532065 11.6804942 -6.88021001 9.98420706 -5.765625 8.28710938 C-5.05921875 7.22685547 -4.3528125 6.16660156 -3.625 5.07421875 C-2.97789062 4.10057373 -2.33078125 3.12692871 -1.6640625 2.1237793 C-1.11492187 1.42293213 -0.56578125 0.72208496 0 0 Z " fill="#5A707B" transform="translate(153,157)"/>
<path d="M0 0 C2.62343217 2.62343217 2 3.3360952 2 7 C0.46875 8.82421875 0.46875 8.82421875 -1.5 10.6875 C-2.1496875 11.31011719 -2.799375 11.93273437 -3.46875 12.57421875 C-3.9740625 13.04472656 -4.479375 13.51523438 -5 14 C-6 11 -6 11 -4.78515625 8.30078125 C-4.21667969 7.31464844 -3.64820313 6.32851562 -3.0625 5.3125 C-2.49660156 4.31863281 -1.93070313 3.32476562 -1.34765625 2.30078125 C-0.90292969 1.54152344 -0.45820313 0.78226562 0 0 Z " fill="#7AA5B9" transform="translate(137,73)"/>
<path d="M0 0 C2.125 0.375 2.125 0.375 4 1 C3.43410156 1.4846875 2.86820313 1.969375 2.28515625 2.46875 C-2.91779496 7.09303535 -2.91779496 7.09303535 -5 13.5 C-5 14.655 -5 15.81 -5 17 C-5.33 17 -5.66 17 -6 17 C-6.50224661 10.72191742 -6.19082691 7.05364422 -2 2 C-1.34 1.34 -0.68 0.68 0 0 Z " fill="#33DAF0" transform="translate(189,135)"/>
<path d="M0 0 C0.33 0 0.66 0 1 0 C1.25 2.8125 1.25 2.8125 1 6 C-1 7.875 -1 7.875 -3 9 C-2.44271087 5.65626525 -1.64826111 2.96687001 0 0 Z " fill="#8AB2C2" transform="translate(134,78)"/>
</svg>
